<?xml version="1.0" encoding="iso-8859-1"?>
<!-- Uploaded to: SVG Repo, www.svgrepo.com, Generator: SVG Repo Mixer Tools -->
<svg height="800px" width="800px" version="1.1" id="Layer_1" xmlns="http://www.w3.org/2000/svg" xmlns:xlink="http://www.w3.org/1999/xlink" 
	 viewBox="0 0 512 512" xml:space="preserve">
<g transform="translate(1 1)">
	<path style="fill:#FFDD09;" d="M255,413.952L255,413.952c-69.738-28.248-143.89-37.959-211.862-8.828H34.31V78.504h8.828
		c66.207-23.834,145.655-23.834,211.862,0l0,0V413.952z"/>
	<path style="fill:#FD9808;" d="M255,413.952L255,413.952c73.269-28.248,149.186-37.959,211.862-8.828h8.828V78.504h-8.828
		c-68.855-23.834-143.89-23.834-211.862,0V413.952z"/>
	<path style="fill:#FFDD09;" d="M263.828,413.952L263.828,413.952c73.269-28.248,113.876-46.786,176.552-17.655h8.828V78.504h-8.828
		c-68.855-23.834-108.579-23.834-176.552,0V413.952z"/>
	<g>
		<path style="fill:#FCC309;" d="M7.828,449.263h494.345V422.78H7.828V449.263z"/>
		<path style="fill:#FCC309;" d="M475.69,78.504v326.621h-8.828c-62.676-29.131-138.593-19.421-211.862,8.828
			c-69.738-28.248-143.89-37.959-211.862-8.828H34.31V78.504H7.828V422.78h494.345V78.504H475.69z"/>
	</g>
	<path d="M511,458.09H-1v-44.138h512V458.09z M16.655,440.435h476.69v-8.828H16.655V440.435z"/>
	<path d="M263.828,427.194l-12.359-4.414c-77.683-30.897-146.538-34.428-204.8-8.828h-1.766H25.483V69.677h15.89
		c67.972-23.834,148.303-23.834,216.276,0.883l6.179,1.766V427.194z M130.531,378.642c36.193,0,74.152,7.945,115.641,22.069V84.684
		c-63.559-21.186-137.71-20.303-200.386,1.766l-0.883,0.883h-1.766v308.083C70.503,383.939,99.634,378.642,130.531,378.642z"/>
	<path d="M246.172,427.194V72.325l6.179-1.766c68.855-24.717,145.655-24.717,216.276-0.883h15.89v344.276h-19.421l-1.766-0.883
		c-53.848-25.6-122.703-22.069-204.8,8.828L246.172,427.194z M263.828,84.684v316.028c79.448-28.248,147.421-30.014,203.034-6.179
		v-307.2h-1.766l-1.766-0.883C399.772,64.38,328.269,64.38,263.828,84.684z"/>
	<path d="M511,431.608H-1V69.677h44.138v325.738c60.91-25.6,132.414-22.069,211.862,8.828
		c82.979-30.897,154.483-34.428,211.862-8.828V69.677H511V431.608z M484.517,413.952h8.828V87.332h-8.828V413.952z M281.483,413.952
		h203.034h-19.421l-1.766-0.883C413.897,390.118,352.986,391.001,281.483,413.952z M16.655,413.952H229.4
		c-68.855-22.952-130.648-23.835-182.731-0.883l-1.766,0.883H25.483V87.332h-8.828V413.952z"/>
	<path d="M202.034,149.125h-79.448c-5.297,0-8.828-3.531-8.828-8.828s3.531-8.828,8.828-8.828h79.448
		c5.297,0,8.828,3.531,8.828,8.828S207.331,149.125,202.034,149.125z"/>
	<path d="M202.034,193.263H87.276c-5.297,0-8.828-3.531-8.828-8.828s3.531-8.828,8.828-8.828h114.759
		c5.297,0,8.828,3.531,8.828,8.828S207.331,193.263,202.034,193.263z"/>
	<path d="M166.724,237.401H87.276c-5.297,0-8.828-3.531-8.828-8.828s3.531-8.828,8.828-8.828h79.448
		c5.297,0,8.828,3.531,8.828,8.828S172.021,237.401,166.724,237.401z"/>
	<path d="M202.034,281.539h-79.448c-5.297,0-8.828-3.531-8.828-8.828c0-5.297,3.531-8.828,8.828-8.828h79.448
		c5.297,0,8.828,3.531,8.828,8.828C210.862,278.008,207.331,281.539,202.034,281.539z"/>
	<path d="M202.034,325.677H87.276c-5.297,0-8.828-3.531-8.828-8.828c0-5.297,3.531-8.828,8.828-8.828h114.759
		c5.297,0,8.828,3.531,8.828,8.828C210.862,322.146,207.331,325.677,202.034,325.677z"/>
	<path d="M387.414,193.263h-79.448c-5.297,0-8.828-3.531-8.828-8.828s3.531-8.828,8.828-8.828h79.448
		c5.297,0,8.828,3.531,8.828,8.828S392.71,193.263,387.414,193.263z"/>
	<path d="M431.552,149.125H307.966c-5.297,0-8.828-3.531-8.828-8.828s3.531-8.828,8.828-8.828h123.586
		c5.297,0,8.828,3.531,8.828,8.828S436.848,149.125,431.552,149.125z"/>
	<path d="M431.552,325.677h-88.276c-5.297,0-8.828-3.531-8.828-8.828c0-5.297,3.531-8.828,8.828-8.828h88.276
		c5.297,0,8.828,3.531,8.828,8.828C440.379,322.146,436.848,325.677,431.552,325.677z"/>
	<path d="M387.414,281.539h-79.448c-5.297,0-8.828-3.531-8.828-8.828c0-5.297,3.531-8.828,8.828-8.828h79.448
		c5.297,0,8.828,3.531,8.828,8.828C396.241,278.008,392.71,281.539,387.414,281.539z"/>
	<path d="M431.552,237.401H307.966c-5.297,0-8.828-3.531-8.828-8.828s3.531-8.828,8.828-8.828h123.586
		c5.297,0,8.828,3.531,8.828,8.828S436.848,237.401,431.552,237.401z"/>
</g>
</svg>